<svg xmlns="http://www.w3.org/2000/svg" xmlns:xlink="http://www.w3.org/1999/xlink" width="360" zoomAndPan="magnify" viewBox="0 0 270 89.999999" height="120" preserveAspectRatio="xMidYMid meet" version="1.0"><defs><clipPath id="826af107a7"><path d="M 24.40625 1.304688 L 201 1.304688 L 201 89.542969 L 24.40625 89.542969 Z M 24.40625 1.304688 " clip-rule="nonzero"/></clipPath><clipPath id="355d74695f"><path d="M 112.6875 89.542969 L 200.972656 1.304688 L 24.40625 1.304688 Z M 112.6875 89.542969 " clip-rule="nonzero"/></clipPath><clipPath id="16b861e8ba"><path d="M 0 0 L 128.71875 0 L 128.71875 89.542969 L 0 89.542969 Z M 0 0 " clip-rule="nonzero"/></clipPath><clipPath id="6df3e871cf"><path d="M 27 0 L 101.621094 0 C 116.535156 0 128.621094 12.089844 128.621094 27 L 128.621094 62.542969 C 128.621094 77.453125 116.535156 89.542969 101.621094 89.542969 L 27 89.542969 C 12.089844 89.542969 0 77.453125 0 62.542969 L 0 27 C 0 12.089844 12.089844 0 27 0 Z M 27 0 " clip-rule="nonzero"/></clipPath><clipPath id="ec06f08499"><path d="M 97.277344 0 L 269.757812 0 L 269.757812 38.261719 L 97.277344 38.261719 Z M 97.277344 0 " clip-rule="nonzero"/></clipPath><clipPath id="d074a1324f"><path d="M 0 37.707031 L 112.6875 37.707031 L 112.6875 89.542969 L 0 89.542969 Z M 0 37.707031 " clip-rule="nonzero"/></clipPath><clipPath id="c9db6c92af"><path d="M 21.085938 23.769531 L 63.085938 23.769531 L 63.085938 65.769531 L 21.085938 65.769531 Z M 21.085938 23.769531 " clip-rule="nonzero"/></clipPath><clipPath id="1f779e97d6"><path d="M 42.085938 23.769531 C 30.488281 23.769531 21.085938 33.171875 21.085938 44.769531 C 21.085938 56.371094 30.488281 65.769531 42.085938 65.769531 C 53.683594 65.769531 63.085938 56.371094 63.085938 44.769531 C 63.085938 33.171875 53.683594 23.769531 42.085938 23.769531 Z M 42.085938 23.769531 " clip-rule="nonzero"/></clipPath><clipPath id="a2981974e7"><path d="M 24.085938 26.769531 L 60.085938 26.769531 L 60.085938 62.769531 L 24.085938 62.769531 Z M 24.085938 26.769531 " clip-rule="nonzero"/></clipPath><clipPath id="173da1d33a"><path d="M 42.085938 26.769531 C 32.144531 26.769531 24.085938 34.832031 24.085938 44.769531 C 24.085938 54.710938 32.144531 62.769531 42.085938 62.769531 C 52.027344 62.769531 60.085938 54.710938 60.085938 44.769531 C 60.085938 34.832031 52.027344 26.769531 42.085938 26.769531 Z M 42.085938 26.769531 " clip-rule="nonzero"/></clipPath></defs><g clip-path="url(#826af107a7)"><g clip-path="url(#355d74695f)"><path fill="#720220" d="M 24.40625 1.304688 L 200.886719 1.304688 L 200.886719 89.542969 L 24.40625 89.542969 Z M 24.40625 1.304688 " fill-opacity="1" fill-rule="nonzero"/></g></g><g clip-path="url(#16b861e8ba)"><g clip-path="url(#6df3e871cf)"><path fill="#720220" d="M 0 0 L 128.71875 0 L 128.71875 89.542969 L 0 89.542969 Z M 0 0 " fill-opacity="1" fill-rule="nonzero"/></g></g><g clip-path="url(#ec06f08499)"><path fill="#720220" d="M 97.277344 0 L 269.75 0 L 269.75 38.261719 L 97.277344 38.261719 Z M 97.277344 0 " fill-opacity="1" fill-rule="nonzero"/></g><g clip-path="url(#d074a1324f)"><path fill="#720220" d="M 0 37.707031 L 112.78125 37.707031 L 112.78125 89.542969 L 0 89.542969 Z M 0 37.707031 " fill-opacity="1" fill-rule="nonzero"/></g><g clip-path="url(#c9db6c92af)"><g clip-path="url(#1f779e97d6)"><path fill="#d4d3d2" d="M 21.085938 23.769531 L 63.085938 23.769531 L 63.085938 65.769531 L 21.085938 65.769531 Z M 21.085938 23.769531 " fill-opacity="1" fill-rule="nonzero"/></g></g><g clip-path="url(#a2981974e7)"><g clip-path="url(#173da1d33a)"><path fill="#1ce8e8" d="M 24.085938 26.769531 L 60.085938 26.769531 L 60.085938 62.769531 L 24.085938 62.769531 Z M 24.085938 26.769531 " fill-opacity="1" fill-rule="nonzero"/></g></g></svg>