<svg xmlns="http://www.w3.org/2000/svg" xmlns:xlink="http://www.w3.org/1999/xlink" width="867" zoomAndPan="magnify" viewBox="0 0 650.25 549.749984" height="733" preserveAspectRatio="xMidYMid meet" version="1.0"><defs><filter x="0%" y="0%" width="100%" height="100%" id="2aa17ec5fc"><feColorMatrix values="0 0 0 0 1 0 0 0 0 1 0 0 0 0 1 0 0 0 1 0" color-interpolation-filters="sRGB"/></filter><mask id="db83be9cef"><g filter="url(#2aa17ec5fc)"><rect x="-65.025" width="780.3" fill="#000000" y="-54.974998" height="659.699981" fill-opacity="0.6"/></g></mask><clipPath id="1a27f93020"><path d="M 0.21875 1.0625 L 619 1.0625 L 619 483.996094 L 0.21875 483.996094 Z M 0.21875 1.0625 " clip-rule="nonzero"/></clipPath><clipPath id="79e5cfa381"><path d="M 30.183594 1.0625 L 589.664062 1.0625 C 597.609375 1.0625 605.234375 4.21875 610.851562 9.839844 C 616.472656 15.457031 619.628906 23.078125 619.628906 31.027344 L 619.628906 454.03125 C 619.628906 461.976562 616.472656 469.597656 610.851562 475.21875 C 605.234375 480.839844 597.609375 483.996094 589.664062 483.996094 L 30.183594 483.996094 C 22.238281 483.996094 14.617188 480.839844 8.996094 475.21875 C 3.375 469.597656 0.21875 461.976562 0.21875 454.03125 L 0.21875 31.027344 C 0.21875 23.078125 3.375 15.457031 8.996094 9.839844 C 14.617188 4.21875 22.238281 1.0625 30.183594 1.0625 Z M 30.183594 1.0625 " clip-rule="nonzero"/></clipPath><clipPath id="9c2e55ea8b"><rect x="0" width="622" y="0" height="485"/></clipPath><mask id="f59bf28cac"><g filter="url(#2aa17ec5fc)"><rect x="-65.025" width="780.3" fill="#000000" y="-54.974998" height="659.699981" fill-opacity="0.53"/></g></mask><clipPath id="a5e480b51a"><path d="M 0.148438 1.101562 L 415.300781 1.101562 L 415.300781 4.847656 L 0.148438 4.847656 Z M 0.148438 1.101562 " clip-rule="nonzero"/></clipPath><clipPath id="e312d81206"><rect x="0" width="416" y="0" height="6"/></clipPath><mask id="9c1146dca8"><g filter="url(#2aa17ec5fc)"><rect x="-65.025" width="780.3" fill="#000000" y="-54.974998" height="659.699981" fill-opacity="0.53"/></g></mask><clipPath id="fde9213ab9"><path d="M 0.386719 0.898438 L 4.132812 0.898438 L 4.132812 38.097656 L 0.386719 38.097656 Z M 0.386719 0.898438 " clip-rule="nonzero"/></clipPath><clipPath id="acf22d5171"><rect x="0" width="5" y="0" height="39"/></clipPath><clipPath id="a6da747111"><path d="M 599.730469 15.648438 L 649.433594 15.648438 L 649.433594 519.449219 L 599.730469 519.449219 Z M 599.730469 15.648438 " clip-rule="nonzero"/></clipPath><clipPath id="92e23ebc06"><path d="M 624.582031 15.648438 C 638.308594 15.648438 649.433594 26.773438 649.433594 40.496094 L 649.433594 494.515625 C 649.433594 508.238281 638.308594 519.367188 624.582031 519.367188 C 610.859375 519.367188 599.730469 508.238281 599.730469 494.515625 L 599.730469 40.496094 C 599.730469 26.773438 610.859375 15.648438 624.582031 15.648438 Z M 624.582031 15.648438 " clip-rule="nonzero"/></clipPath><clipPath id="0c4fb2ae71"><path d="M 0 501.917969 L 649.433594 501.917969 L 649.433594 519.996094 L 0 519.996094 Z M 0 501.917969 " clip-rule="nonzero"/></clipPath><clipPath id="81fb86369f"><path d="M 11.984375 514.949219 L 187.554688 514.949219 L 187.554688 534.109375 L 11.984375 534.109375 Z M 11.984375 514.949219 " clip-rule="nonzero"/></clipPath><clipPath id="4fe9af6cec"><path d="M 144 502 L 212 502 L 212 549.308594 L 144 549.308594 Z M 144 502 " clip-rule="nonzero"/></clipPath><clipPath id="3e421ab9ac"><path d="M 144.90625 531.988281 L 203.492188 502.960938 L 212 520.128906 L 153.410156 549.152344 Z M 144.90625 531.988281 " clip-rule="nonzero"/></clipPath><clipPath id="96136d7c3f"><path d="M 0 0.191406 L 75.921875 0.191406 L 75.921875 535.195312 L 0 535.195312 Z M 0 0.191406 " clip-rule="nonzero"/></clipPath><clipPath id="a4ff60af52"><path d="M 29.964844 0.191406 L 45.957031 0.191406 C 53.902344 0.191406 61.523438 3.347656 67.144531 8.96875 C 72.761719 14.589844 75.921875 22.210938 75.921875 30.15625 L 75.921875 505.195312 C 75.921875 513.140625 72.761719 520.765625 67.144531 526.382812 C 61.523438 532.003906 53.902344 535.160156 45.957031 535.160156 L 29.964844 535.160156 C 22.019531 535.160156 14.394531 532.003906 8.777344 526.382812 C 3.15625 520.765625 0 513.140625 0 505.195312 L 0 30.15625 C 0 22.210938 3.15625 14.589844 8.777344 8.96875 C 14.394531 3.347656 22.019531 0.191406 29.964844 0.191406 Z M 29.964844 0.191406 " clip-rule="nonzero"/></clipPath><clipPath id="edbbef6fa3"><path d="M 193 61 L 243 61 L 243 112 L 193 112 Z M 193 61 " clip-rule="nonzero"/></clipPath><clipPath id="6a4c1deea9"><path d="M 242.613281 61.71875 L 193.199219 111.136719 L 168.539062 86.476562 L 217.953125 37.058594 Z M 242.613281 61.71875 " clip-rule="nonzero"/></clipPath><clipPath id="173e58e422"><path d="M 193.28125 61.730469 L 193.269531 111.0625 L 242.613281 61.71875 Z M 193.28125 61.730469 " clip-rule="nonzero"/></clipPath><clipPath id="c3bf2fdff6"><path d="M 528.148438 36.535156 L 649.5 36.535156 L 649.5 114.316406 L 528.148438 114.316406 Z M 528.148438 36.535156 " clip-rule="nonzero"/></clipPath><clipPath id="97f935838c"><path d="M 555.117188 36.535156 L 622.464844 36.535156 C 629.617188 36.535156 636.476562 39.375 641.535156 44.433594 C 646.589844 49.492188 649.433594 56.351562 649.433594 63.503906 L 649.433594 87.347656 C 649.433594 94.5 646.589844 101.359375 641.535156 106.417969 C 636.476562 111.476562 629.617188 114.316406 622.464844 114.316406 L 555.117188 114.316406 C 547.964844 114.316406 541.105469 111.476562 536.046875 106.417969 C 530.988281 101.359375 528.148438 94.5 528.148438 87.347656 L 528.148438 63.503906 C 528.148438 56.351562 530.988281 49.492188 536.046875 44.433594 C 541.105469 39.375 547.964844 36.535156 555.117188 36.535156 Z M 555.117188 36.535156 " clip-rule="nonzero"/></clipPath><clipPath id="7f67e2ac1a"><path d="M 344.585938 36.535156 L 571.300781 36.535156 L 571.300781 72.90625 L 344.585938 72.90625 Z M 344.585938 36.535156 " clip-rule="nonzero"/></clipPath><clipPath id="5ae7cdc081"><path d="M 26.21875 63.648438 L 164.742188 63.648438 L 164.742188 114.316406 L 26.21875 114.316406 Z M 26.21875 63.648438 " clip-rule="nonzero"/></clipPath><clipPath id="a314d1e863"><path d="M 23.222656 0.191406 L 206 0.191406 L 206 114.316406 L 23.222656 114.316406 Z M 23.222656 0.191406 " clip-rule="nonzero"/></clipPath><clipPath id="c11aba601b"><path d="M 50.191406 0.191406 L 178.648438 0.191406 C 185.800781 0.191406 192.664062 3.03125 197.71875 8.089844 C 202.777344 13.148438 205.617188 20.007812 205.617188 27.160156 L 205.617188 87.347656 C 205.617188 94.5 202.777344 101.359375 197.71875 106.417969 C 192.664062 111.476562 185.800781 114.316406 178.648438 114.316406 L 50.191406 114.316406 C 43.039062 114.316406 36.179688 111.476562 31.121094 106.417969 C 26.066406 101.359375 23.222656 94.5 23.222656 87.347656 L 23.222656 27.160156 C 23.222656 20.007812 26.066406 13.148438 31.121094 8.089844 C 36.179688 3.03125 43.039062 0.191406 50.191406 0.191406 Z M 50.191406 0.191406 " clip-rule="nonzero"/></clipPath><clipPath id="b78f8ffbdb"><path d="M 560.742188 502.964844 L 649.5 502.964844 L 649.5 549.15625 L 560.742188 549.15625 Z M 560.742188 502.964844 " clip-rule="nonzero"/></clipPath><clipPath id="f984291a74"><path d="M 583.839844 502.964844 L 626.335938 502.964844 C 632.460938 502.964844 638.335938 505.398438 642.667969 509.730469 C 647 514.058594 649.433594 519.933594 649.433594 526.058594 C 649.433594 532.183594 647 538.058594 642.667969 542.390625 C 638.335938 546.722656 632.460938 549.15625 626.335938 549.15625 L 583.839844 549.15625 C 577.714844 549.15625 571.839844 546.722656 567.507812 542.390625 C 563.175781 538.058594 560.742188 532.183594 560.742188 526.058594 C 560.742188 519.933594 563.175781 514.058594 567.507812 509.730469 C 571.839844 505.398438 577.714844 502.964844 583.839844 502.964844 Z M 583.839844 502.964844 " clip-rule="nonzero"/></clipPath><clipPath id="697333d30b"><path d="M 144.117188 36.535156 L 370.828125 36.535156 L 370.828125 72.90625 L 144.117188 72.90625 Z M 144.117188 36.535156 " clip-rule="nonzero"/></clipPath><clipPath id="e0d6b35f6c"><path d="M 197 10 L 246 10 L 246 62 L 197 62 Z M 197 10 " clip-rule="nonzero"/></clipPath><clipPath id="b47d50101e"><path d="M 200.59375 10.757812 L 245.429688 61.757812 L 219.980469 84.132812 L 175.140625 33.132812 Z M 200.59375 10.757812 " clip-rule="nonzero"/></clipPath><clipPath id="9141f46fdd"><path d="M 197.527344 58.597656 L 245.367188 61.683594 L 200.59375 10.757812 Z M 197.527344 58.597656 " clip-rule="nonzero"/></clipPath><clipPath id="569ea2d740"><path d="M 369 36 L 407 36 L 407 75 L 369 75 Z M 369 36 " clip-rule="nonzero"/></clipPath><clipPath id="a104152310"><path d="M 406.738281 36.417969 L 369.039062 74.117188 L 350.222656 55.304688 L 387.925781 17.605469 Z M 406.738281 36.417969 " clip-rule="nonzero"/></clipPath><clipPath id="c9fb2972bb"><path d="M 369.101562 36.425781 L 369.09375 74.0625 L 406.738281 36.417969 Z M 369.101562 36.425781 " clip-rule="nonzero"/></clipPath><clipPath id="c3cabebaf4"><path d="M 0 49.113281 L 649.433594 49.113281 L 649.433594 52.859375 L 0 52.859375 Z M 0 49.113281 " clip-rule="nonzero"/></clipPath><clipPath id="1294b9f9f3"><path d="M 78.90625 32.214844 L 185.730469 32.214844 L 185.730469 95.082031 L 78.90625 95.082031 Z M 78.90625 32.214844 " clip-rule="nonzero"/></clipPath><clipPath id="b24fa63f82"><path d="M 105.875 32.214844 L 158.660156 32.214844 C 165.8125 32.214844 172.671875 35.054688 177.730469 40.113281 C 182.789062 45.171875 185.628906 52.03125 185.628906 59.183594 L 185.628906 68.113281 C 185.628906 75.265625 182.789062 82.125 177.730469 87.183594 C 172.671875 92.238281 165.8125 95.082031 158.660156 95.082031 L 105.875 95.082031 C 98.722656 95.082031 91.863281 92.238281 86.804688 87.183594 C 81.746094 82.125 78.90625 75.265625 78.90625 68.113281 L 78.90625 59.183594 C 78.90625 52.03125 81.746094 45.171875 86.804688 40.113281 C 91.863281 35.054688 98.722656 32.214844 105.875 32.214844 Z M 105.875 32.214844 " clip-rule="nonzero"/></clipPath><mask id="a32f95454f"><g filter="url(#2aa17ec5fc)"><rect x="-65.025" width="780.3" fill="#000000" y="-54.974998" height="659.699981" fill-opacity="0.87"/></g></mask><clipPath id="8c55c9327d"><path d="M 0.4375 0.734375 L 43.910156 0.734375 L 43.910156 14.339844 L 0.4375 14.339844 Z M 0.4375 0.734375 " clip-rule="nonzero"/></clipPath><clipPath id="3cf2ac0149"><path d="M 7.242188 0.734375 L 37.054688 0.734375 C 40.8125 0.734375 43.859375 3.78125 43.859375 7.535156 C 43.859375 11.292969 40.8125 14.339844 37.054688 14.339844 L 7.242188 14.339844 C 3.484375 14.339844 0.4375 11.292969 0.4375 7.535156 C 0.4375 3.78125 3.484375 0.734375 7.242188 0.734375 Z M 7.242188 0.734375 " clip-rule="nonzero"/></clipPath><clipPath id="71911618a1"><rect x="0" width="45" y="0" height="15"/></clipPath><clipPath id="8756ce48cb"><path d="M 571.300781 57.820312 L 613.84375 57.820312 L 613.84375 100.363281 L 571.300781 100.363281 Z M 571.300781 57.820312 " clip-rule="nonzero"/></clipPath><clipPath id="dfd732c891"><path d="M 592.574219 57.820312 C 580.824219 57.820312 571.300781 67.34375 571.300781 79.09375 C 571.300781 90.839844 580.824219 100.363281 592.574219 100.363281 C 604.320312 100.363281 613.84375 90.839844 613.84375 79.09375 C 613.84375 67.34375 604.320312 57.820312 592.574219 57.820312 Z M 592.574219 57.820312 " clip-rule="nonzero"/></clipPath><clipPath id="4ea73c592e"><path d="M 0 502.964844 L 156.148438 502.964844 L 156.148438 548.855469 L 0 548.855469 Z M 0 502.964844 " clip-rule="nonzero"/></clipPath><clipPath id="18d4a3a998"><path d="M 154 517 L 236 517 L 236 549 L 154 549 Z M 154 517 " clip-rule="nonzero"/></clipPath><clipPath id="a44421068b"><path d="M 235.148438 517.695312 L 154.484375 548.875 L 148.792969 534.144531 L 229.453125 502.964844 Z M 235.148438 517.695312 " clip-rule="nonzero"/></clipPath><clipPath id="dc74a23fd6"><path d="M 189.148438 518.546875 L 154.539062 548.855469 L 235.148438 517.695312 Z M 189.148438 518.546875 " clip-rule="nonzero"/></clipPath><clipPath id="6d01ff21e7"><path d="M 50.234375 507.675781 L 83.941406 507.675781 L 83.941406 541.382812 L 50.234375 541.382812 Z M 50.234375 507.675781 " clip-rule="nonzero"/></clipPath><clipPath id="0a6c73c138"><path d="M 67.085938 507.675781 C 57.777344 507.675781 50.234375 515.222656 50.234375 524.53125 C 50.234375 533.839844 57.777344 541.382812 67.085938 541.382812 C 76.394531 541.382812 83.941406 533.839844 83.941406 524.53125 C 83.941406 515.222656 76.394531 507.675781 67.085938 507.675781 Z M 67.085938 507.675781 " clip-rule="nonzero"/></clipPath><clipPath id="0a73201019"><path d="M 54.683594 512.125 L 79.492188 512.125 L 79.492188 536.933594 L 54.683594 536.933594 Z M 54.683594 512.125 " clip-rule="nonzero"/></clipPath><clipPath id="ed5e7b16f1"><path d="M 67.085938 512.125 C 60.234375 512.125 54.683594 517.679688 54.683594 524.53125 C 54.683594 531.378906 60.234375 536.933594 67.085938 536.933594 C 73.9375 536.933594 79.492188 531.378906 79.492188 524.53125 C 79.492188 517.679688 73.9375 512.125 67.085938 512.125 Z M 67.085938 512.125 " clip-rule="nonzero"/></clipPath><clipPath id="76af5b6b08"><path d="M 92.332031 507.675781 L 126.042969 507.675781 L 126.042969 541.382812 L 92.332031 541.382812 Z M 92.332031 507.675781 " clip-rule="nonzero"/></clipPath><clipPath id="01d82c7ffc"><path d="M 109.1875 507.675781 C 99.878906 507.675781 92.332031 515.222656 92.332031 524.53125 C 92.332031 533.839844 99.878906 541.382812 109.1875 541.382812 C 118.496094 541.382812 126.042969 533.839844 126.042969 524.53125 C 126.042969 515.222656 118.496094 507.675781 109.1875 507.675781 Z M 109.1875 507.675781 " clip-rule="nonzero"/></clipPath><clipPath id="c5edd253d5"><path d="M 96.78125 512.125 L 121.59375 512.125 L 121.59375 536.933594 L 96.78125 536.933594 Z M 96.78125 512.125 " clip-rule="nonzero"/></clipPath><clipPath id="8373d82ea4"><path d="M 109.1875 512.125 C 102.335938 512.125 96.78125 517.679688 96.78125 524.53125 C 96.78125 531.378906 102.335938 536.933594 109.1875 536.933594 C 116.039062 536.933594 121.59375 531.378906 121.59375 524.53125 C 121.59375 517.679688 116.039062 512.125 109.1875 512.125 Z M 109.1875 512.125 " clip-rule="nonzero"/></clipPath><clipPath id="ef2fa57d99"><path d="M 131.992188 507.675781 L 165.703125 507.675781 L 165.703125 541.382812 L 131.992188 541.382812 Z M 131.992188 507.675781 " clip-rule="nonzero"/></clipPath><clipPath id="a19a204153"><path d="M 148.847656 507.675781 C 139.539062 507.675781 131.992188 515.222656 131.992188 524.53125 C 131.992188 533.839844 139.539062 541.382812 148.847656 541.382812 C 158.15625 541.382812 165.703125 533.839844 165.703125 524.53125 C 165.703125 515.222656 158.15625 507.675781 148.847656 507.675781 Z M 148.847656 507.675781 " clip-rule="nonzero"/></clipPath><clipPath id="76e1e6f6ed"><path d="M 136.441406 512.125 L 161.253906 512.125 L 161.253906 536.933594 L 136.441406 536.933594 Z M 136.441406 512.125 " clip-rule="nonzero"/></clipPath><clipPath id="5866fcd86e"><path d="M 148.847656 512.125 C 141.996094 512.125 136.441406 517.679688 136.441406 524.53125 C 136.441406 531.378906 141.996094 536.933594 148.847656 536.933594 C 155.699219 536.933594 161.253906 531.378906 161.253906 524.53125 C 161.253906 517.679688 155.699219 512.125 148.847656 512.125 Z M 148.847656 512.125 " clip-rule="nonzero"/></clipPath><clipPath id="ee94c3c7aa"><path d="M 31.421875 1.25 L 89.855469 1.25 L 89.855469 30.46875 L 31.421875 30.46875 Z M 31.421875 1.25 " clip-rule="nonzero"/></clipPath><clipPath id="4ead6d178f"><path d="M 35.511719 1.25 L 85.703125 1.25 L 85.703125 26.722656 L 35.511719 26.722656 Z M 35.511719 1.25 " clip-rule="nonzero"/></clipPath><mask id="cfa95621af"><g filter="url(#2aa17ec5fc)"><rect x="-65.025" width="780.3" fill="#000000" y="-54.974998" height="659.699981" fill-opacity="0.87"/></g></mask><clipPath id="2683e05316"><path d="M 1.023438 0.648438 L 14.839844 0.648438 L 14.839844 14.253906 L 1.023438 14.253906 Z M 1.023438 0.648438 " clip-rule="nonzero"/></clipPath><clipPath id="9f4b9d4af4"><path d="M 7.824219 0.648438 L 8.003906 0.648438 C 11.761719 0.648438 14.804688 3.695312 14.804688 7.449219 C 14.804688 11.207031 11.761719 14.253906 8.003906 14.253906 L 7.824219 14.253906 C 4.070312 14.253906 1.023438 11.207031 1.023438 7.449219 C 1.023438 3.695312 4.070312 0.648438 7.824219 0.648438 Z M 7.824219 0.648438 " clip-rule="nonzero"/></clipPath><clipPath id="71f7e9f37e"><rect x="0" width="15" y="0" height="15"/></clipPath><mask id="4bc8585c78"><g filter="url(#2aa17ec5fc)"><rect x="-65.025" width="780.3" fill="#000000" y="-54.974998" height="659.699981" fill-opacity="0.53"/></g></mask><clipPath id="eced24b2f0"><path d="M 0.816406 0.898438 L 4.5625 0.898438 L 4.5625 38.097656 L 0.816406 38.097656 Z M 0.816406 0.898438 " clip-rule="nonzero"/></clipPath><clipPath id="be10b1c3f0"><rect x="0" width="5" y="0" height="39"/></clipPath></defs><g mask="url(#db83be9cef)"><g transform="matrix(1, 0, 0, 1, 26, 36)"><g clip-path="url(#9c2e55ea8b)"><g clip-path="url(#1a27f93020)"><g clip-path="url(#79e5cfa381)"><path fill="#000000" d="M 0.21875 1.0625 L 618.980469 1.0625 L 618.980469 483.996094 L 0.21875 483.996094 Z M 0.21875 1.0625 " fill-opacity="1" fill-rule="nonzero"/></g></g></g></g></g><g mask="url(#f59bf28cac)"><g transform="matrix(1, 0, 0, 1, 156, 109)"><g clip-path="url(#e312d81206)"><g clip-path="url(#a5e480b51a)"><path fill="#d4d3d2" d="M 0.148438 1.101562 L 415.304688 1.101562 L 415.304688 4.847656 L 0.148438 4.847656 Z M 0.148438 1.101562 " fill-opacity="1" fill-rule="nonzero"/></g></g></g></g><g mask="url(#9c1146dca8)"><g transform="matrix(1, 0, 0, 1, 317, 72)"><g clip-path="url(#acf22d5171)"><g clip-path="url(#fde9213ab9)"><path fill="#d4d3d2" d="M 0.386719 38.097656 L 0.386719 0.902344 L 4.132812 0.902344 L 4.132812 38.097656 Z M 0.386719 38.097656 " fill-opacity="1" fill-rule="nonzero"/></g></g></g></g><g clip-path="url(#a6da747111)"><g clip-path="url(#92e23ebc06)"><path fill="#474747" d="M 599.730469 15.648438 L 649.433594 15.648438 L 649.433594 519.449219 L 599.730469 519.449219 Z M 599.730469 15.648438 " fill-opacity="1" fill-rule="nonzero"/></g></g><g clip-path="url(#0c4fb2ae71)"><path fill="#d9d9d9" d="M 0 501.917969 L 649.398438 501.917969 L 649.398438 519.996094 L 0 519.996094 Z M 0 501.917969 " fill-opacity="1" fill-rule="nonzero"/></g><g clip-path="url(#81fb86369f)"><path fill="#d9d9d9" d="M 11.984375 514.949219 L 187.546875 514.949219 L 187.546875 534.109375 L 11.984375 534.109375 Z M 11.984375 514.949219 " fill-opacity="1" fill-rule="nonzero"/></g><g clip-path="url(#4fe9af6cec)"><g clip-path="url(#3e421ab9ac)"><path fill="#d9d9d9" d="M 144.90625 531.988281 L 203.515625 502.953125 L 212.019531 520.117188 L 153.410156 549.152344 Z M 144.90625 531.988281 " fill-opacity="1" fill-rule="nonzero"/></g></g><g clip-path="url(#96136d7c3f)"><g clip-path="url(#a4ff60af52)"><path fill="#d30a40" d="M 0 0.191406 L 75.921875 0.191406 L 75.921875 535.195312 L 0 535.195312 Z M 0 0.191406 " fill-opacity="1" fill-rule="nonzero"/></g></g><g clip-path="url(#edbbef6fa3)"><g clip-path="url(#6a4c1deea9)"><g clip-path="url(#173e58e422)"><path fill="#d30a40" d="M 242.613281 61.71875 L 193.292969 111.039062 L 168.636719 86.378906 L 217.953125 37.058594 Z M 242.613281 61.71875 " fill-opacity="1" fill-rule="nonzero"/></g></g></g><g clip-path="url(#c3bf2fdff6)"><g clip-path="url(#97f935838c)"><path fill="#474747" d="M 528.148438 36.535156 L 649.378906 36.535156 L 649.378906 114.316406 L 528.148438 114.316406 Z M 528.148438 36.535156 " fill-opacity="1" fill-rule="nonzero"/></g></g><g clip-path="url(#7f67e2ac1a)"><path fill="#474747" d="M 344.585938 36.535156 L 571.328125 36.535156 L 571.328125 72.90625 L 344.585938 72.90625 Z M 344.585938 36.535156 " fill-opacity="1" fill-rule="nonzero"/></g><g clip-path="url(#5ae7cdc081)"><path fill="#d30a40" d="M 26.21875 63.648438 L 164.765625 63.648438 L 164.765625 114.316406 L 26.21875 114.316406 Z M 26.21875 63.648438 " fill-opacity="1" fill-rule="nonzero"/></g><g clip-path="url(#a314d1e863)"><g clip-path="url(#c11aba601b)"><path fill="#d30a40" d="M 23.222656 0.191406 L 205.554688 0.191406 L 205.554688 114.316406 L 23.222656 114.316406 Z M 23.222656 0.191406 " fill-opacity="1" fill-rule="nonzero"/></g></g><g clip-path="url(#b78f8ffbdb)"><g clip-path="url(#f984291a74)"><path fill="#d9d9d9" d="M 560.742188 502.964844 L 649.519531 502.964844 L 649.519531 549.15625 L 560.742188 549.15625 Z M 560.742188 502.964844 " fill-opacity="1" fill-rule="nonzero"/></g></g><g clip-path="url(#697333d30b)"><path fill="#d30a40" d="M 144.117188 36.535156 L 370.855469 36.535156 L 370.855469 72.90625 L 144.117188 72.90625 Z M 144.117188 36.535156 " fill-opacity="1" fill-rule="nonzero"/></g><g clip-path="url(#e0d6b35f6c)"><g clip-path="url(#b47d50101e)"><g clip-path="url(#9141f46fdd)"><path fill="#d30a40" d="M 200.59375 10.757812 L 245.34375 61.660156 L 219.894531 84.035156 L 175.140625 33.132812 Z M 200.59375 10.757812 " fill-opacity="1" fill-rule="nonzero"/></g></g></g><g clip-path="url(#569ea2d740)"><g clip-path="url(#a104152310)"><g clip-path="url(#c9fb2972bb)"><path fill="#d30a40" d="M 406.738281 36.417969 L 369.109375 74.046875 L 350.296875 55.230469 L 387.925781 17.605469 Z M 406.738281 36.417969 " fill-opacity="1" fill-rule="nonzero"/></g></g></g><g clip-path="url(#c3cabebaf4)"><path fill="#ffde59" d="M 0 49.113281 L 649.4375 49.113281 L 649.4375 52.859375 L 0 52.859375 Z M 0 49.113281 " fill-opacity="1" fill-rule="nonzero"/></g><g clip-path="url(#1294b9f9f3)"><g clip-path="url(#b24fa63f82)"><path fill="#1ce8e8" d="M 78.90625 32.214844 L 185.730469 32.214844 L 185.730469 95.082031 L 78.90625 95.082031 Z M 78.90625 32.214844 " fill-opacity="1" fill-rule="nonzero"/></g></g><g mask="url(#a32f95454f)"><g transform="matrix(1, 0, 0, 1, 134, 41)"><g clip-path="url(#71911618a1)"><g clip-path="url(#8c55c9327d)"><g clip-path="url(#3cf2ac0149)"><path fill="#ffffff" d="M 0.4375 0.734375 L 43.855469 0.734375 L 43.855469 14.339844 L 0.4375 14.339844 Z M 0.4375 0.734375 " fill-opacity="1" fill-rule="nonzero"/></g></g></g></g></g><g clip-path="url(#8756ce48cb)"><g clip-path="url(#dfd732c891)"><path fill="#5bce4e" d="M 571.300781 57.820312 L 613.84375 57.820312 L 613.84375 100.363281 L 571.300781 100.363281 Z M 571.300781 57.820312 " fill-opacity="1" fill-rule="nonzero"/></g></g><g clip-path="url(#4ea73c592e)"><path fill="#d9d9d9" d="M 0 502.964844 L 156.132812 502.964844 L 156.132812 548.855469 L 0 548.855469 Z M 0 502.964844 " fill-opacity="1" fill-rule="nonzero"/></g><g clip-path="url(#18d4a3a998)"><g clip-path="url(#a44421068b)"><g clip-path="url(#dc74a23fd6)"><path fill="#d9d9d9" d="M 235.148438 517.695312 L 154.542969 548.851562 L 148.847656 534.125 L 229.453125 502.964844 Z M 235.148438 517.695312 " fill-opacity="1" fill-rule="nonzero"/></g></g></g><g clip-path="url(#6d01ff21e7)"><g clip-path="url(#0a6c73c138)"><path fill="#248ccc" d="M 50.234375 507.675781 L 83.941406 507.675781 L 83.941406 541.382812 L 50.234375 541.382812 Z M 50.234375 507.675781 " fill-opacity="1" fill-rule="nonzero"/></g></g><g clip-path="url(#0a73201019)"><g clip-path="url(#ed5e7b16f1)"><path fill="#d4d3d2" d="M 54.683594 512.125 L 79.492188 512.125 L 79.492188 536.933594 L 54.683594 536.933594 Z M 54.683594 512.125 " fill-opacity="1" fill-rule="nonzero"/></g></g><g clip-path="url(#76af5b6b08)"><g clip-path="url(#01d82c7ffc)"><path fill="#248ccc" d="M 92.332031 507.675781 L 126.042969 507.675781 L 126.042969 541.382812 L 92.332031 541.382812 Z M 92.332031 507.675781 " fill-opacity="1" fill-rule="nonzero"/></g></g><g clip-path="url(#c5edd253d5)"><g clip-path="url(#8373d82ea4)"><path fill="#d4d3d2" d="M 96.78125 512.125 L 121.59375 512.125 L 121.59375 536.933594 L 96.78125 536.933594 Z M 96.78125 512.125 " fill-opacity="1" fill-rule="nonzero"/></g></g><g clip-path="url(#ef2fa57d99)"><g clip-path="url(#a19a204153)"><path fill="#248ccc" d="M 131.992188 507.675781 L 165.703125 507.675781 L 165.703125 541.382812 L 131.992188 541.382812 Z M 131.992188 507.675781 " fill-opacity="1" fill-rule="nonzero"/></g></g><g clip-path="url(#76e1e6f6ed)"><g clip-path="url(#5866fcd86e)"><path fill="#d4d3d2" d="M 136.441406 512.125 L 161.253906 512.125 L 161.253906 536.933594 L 136.441406 536.933594 Z M 136.441406 512.125 " fill-opacity="1" fill-rule="nonzero"/></g></g><g clip-path="url(#ee94c3c7aa)"><path fill="#ffde59" d="M 89.832031 1.25 L 89.832031 1.390625 C 89.832031 5.332031 89.0625 9.152344 87.539062 12.753906 C 86.066406 16.230469 83.964844 19.351562 81.28125 22.03125 C 78.601562 24.714844 75.480469 26.820312 72.003906 28.289062 C 68.402344 29.8125 64.578125 30.582031 60.636719 30.582031 C 56.699219 30.582031 52.875 29.8125 49.273438 28.289062 C 45.796875 26.820312 42.675781 24.714844 39.996094 22.03125 C 37.3125 19.351562 35.210938 16.230469 33.738281 12.753906 C 32.214844 9.152344 31.445312 5.332031 31.445312 1.390625 L 31.445312 1.25 Z M 89.832031 1.25 " fill-opacity="1" fill-rule="nonzero"/></g><g clip-path="url(#4ead6d178f)"><path fill="#d30a40" d="M 85.742188 1.25 L 85.742188 1.371094 C 85.742188 4.757812 85.078125 8.046875 83.769531 11.140625 C 82.503906 14.132812 80.695312 16.816406 78.386719 19.121094 C 76.082031 21.425781 73.398438 23.238281 70.410156 24.503906 C 67.3125 25.8125 64.027344 26.476562 60.636719 26.476562 C 57.246094 26.476562 53.960938 25.8125 50.863281 24.503906 C 47.875 23.238281 45.191406 21.425781 42.882812 19.121094 C 40.578125 16.816406 38.769531 14.132812 37.503906 11.140625 C 36.195312 8.046875 35.53125 4.757812 35.53125 1.371094 L 35.53125 1.25 Z M 85.742188 1.25 " fill-opacity="1" fill-rule="nonzero"/></g><g mask="url(#cfa95621af)"><g transform="matrix(1, 0, 0, 1, 595, 63)"><g clip-path="url(#71f7e9f37e)"><g clip-path="url(#2683e05316)"><g clip-path="url(#9f4b9d4af4)"><path fill="#ffffff" d="M 1.023438 0.648438 L 14.789062 0.648438 L 14.789062 14.253906 L 1.023438 14.253906 Z M 1.023438 0.648438 " fill-opacity="1" fill-rule="nonzero"/></g></g></g></g></g><g mask="url(#4bc8585c78)"><g transform="matrix(1, 0, 0, 1, 418, 72)"><g clip-path="url(#be10b1c3f0)"><g clip-path="url(#eced24b2f0)"><path fill="#d4d3d2" d="M 0.816406 38.097656 L 0.816406 0.902344 L 4.5625 0.902344 L 4.5625 38.097656 Z M 0.816406 38.097656 " fill-opacity="1" fill-rule="nonzero"/></g></g></g></g></svg>