<svg xmlns="http://www.w3.org/2000/svg" xmlns:xlink="http://www.w3.org/1999/xlink" width="874" zoomAndPan="magnify" viewBox="0 0 655.5 508.499985" height="678" preserveAspectRatio="xMidYMid meet" version="1.0"><defs><filter x="0%" y="0%" width="100%" height="100%" id="1c31584caa"><feColorMatrix values="0 0 0 0 1 0 0 0 0 1 0 0 0 0 1 0 0 0 1 0" color-interpolation-filters="sRGB"/></filter><clipPath id="484de8ce35"><path d="M 6.617188 28.859375 L 648.738281 28.859375 L 648.738281 506.140625 L 6.617188 506.140625 Z M 6.617188 28.859375 " clip-rule="nonzero"/></clipPath><clipPath id="bb8eb4e6d0"><path d="M 36.589844 28.859375 L 618.964844 28.859375 C 626.914062 28.859375 634.539062 32.015625 640.15625 37.636719 C 645.777344 43.257812 648.9375 50.878906 648.9375 58.828125 L 648.9375 476.484375 C 648.9375 484.433594 645.777344 492.054688 640.15625 497.675781 C 634.539062 503.296875 626.914062 506.453125 618.964844 506.453125 L 36.589844 506.453125 C 28.640625 506.453125 21.015625 503.296875 15.394531 497.675781 C 9.777344 492.054688 6.617188 484.433594 6.617188 476.484375 L 6.617188 58.828125 C 6.617188 50.878906 9.777344 43.257812 15.394531 37.636719 C 21.015625 32.015625 28.640625 28.859375 36.589844 28.859375 Z M 36.589844 28.859375 " clip-rule="nonzero"/></clipPath><mask id="99522c18d0"><g filter="url(#1c31584caa)"><rect x="-65.55" width="786.6" fill="#000000" y="-50.849998" height="610.199982" fill-opacity="0.6"/></g></mask><clipPath id="8d964c7271"><path d="M 0.371094 0.167969 L 630 0.167969 L 630 475.460938 L 0.371094 475.460938 Z M 0.371094 0.167969 " clip-rule="nonzero"/></clipPath><clipPath id="1caaab915f"><path d="M 30.519531 0.25 L 600.5625 0.25 C 608.511719 0.25 616.136719 3.410156 621.753906 9.027344 C 627.375 14.648438 630.535156 22.273438 630.535156 30.222656 L 630.535156 445.488281 C 630.535156 453.4375 627.375 461.0625 621.753906 466.679688 C 616.136719 472.300781 608.511719 475.460938 600.5625 475.460938 L 30.519531 475.460938 C 22.570312 475.460938 14.949219 472.300781 9.328125 466.679688 C 3.707031 461.0625 0.550781 453.4375 0.550781 445.488281 L 0.550781 30.222656 C 0.550781 22.273438 3.707031 14.648438 9.328125 9.027344 C 14.949219 3.410156 22.570312 0.25 30.519531 0.25 Z M 30.519531 0.25 " clip-rule="nonzero"/></clipPath><clipPath id="171b3fc5e4"><rect x="0" width="632" y="0" height="476"/></clipPath><clipPath id="6c4073ba2a"><path d="M 0.0703125 0.160156 L 377.113281 0.160156 L 377.113281 508 L 0.0703125 508 Z M 0.0703125 0.160156 " clip-rule="nonzero"/></clipPath><clipPath id="4c69d5e59d"><path d="M 30.042969 0.160156 L 347.144531 0.160156 C 355.089844 0.160156 362.714844 3.320312 368.335938 8.941406 C 373.957031 14.558594 377.113281 22.183594 377.113281 30.132812 L 377.113281 477.765625 C 377.113281 485.714844 373.957031 493.335938 368.335938 498.957031 C 362.714844 504.578125 355.089844 507.734375 347.144531 507.734375 L 30.042969 507.734375 C 22.09375 507.734375 14.472656 504.578125 8.851562 498.957031 C 3.230469 493.335938 0.0703125 485.714844 0.0703125 477.765625 L 0.0703125 30.132812 C 0.0703125 22.183594 3.230469 14.558594 8.851562 8.941406 C 14.472656 3.320312 22.09375 0.160156 30.042969 0.160156 Z M 30.042969 0.160156 " clip-rule="nonzero"/></clipPath><clipPath id="822daa5708"><path d="M 0.0703125 0.164062 L 376.953125 0.164062 L 376.953125 507.414062 L 0.0703125 507.414062 Z M 0.0703125 0.164062 " clip-rule="nonzero"/></clipPath><clipPath id="d5978977c3"><path d="M 30.042969 0.164062 L 347.132812 0.164062 C 355.082031 0.164062 362.707031 3.320312 368.324219 8.941406 C 373.945312 14.5625 377.105469 22.1875 377.105469 30.132812 L 377.105469 477.757812 C 377.105469 485.703125 373.945312 493.328125 368.324219 498.949219 C 362.707031 504.566406 355.082031 507.726562 347.132812 507.726562 L 30.042969 507.726562 C 22.09375 507.726562 14.46875 504.566406 8.851562 498.949219 C 3.230469 493.328125 0.0703125 485.703125 0.0703125 477.757812 L 0.0703125 30.132812 C 0.0703125 22.1875 3.230469 14.5625 8.851562 8.941406 C 14.46875 3.320312 22.09375 0.164062 30.042969 0.164062 Z M 30.042969 0.164062 " clip-rule="nonzero"/></clipPath><clipPath id="7772e21db9"><path d="M 625.917969 476.5625 L 654.464844 476.5625 L 654.464844 506.554688 L 625.917969 506.554688 Z M 625.917969 476.5625 " clip-rule="nonzero"/></clipPath><clipPath id="89d619f811"><path d="M 653.492188 486.53125 C 654.011719 488.058594 654.355469 489.808594 654.355469 491.519531 C 654.355469 493.226562 654.0625 494.875 653.539062 496.390625 C 653.523438 496.421875 653.523438 496.453125 653.507812 496.488281 C 651.421875 502.179688 645.917969 506.375 639.671875 506.457031 L 625.917969 506.457031 L 625.917969 476.5625 L 639.660156 476.5625 C 645.953125 476.644531 651.457031 480.773438 653.492188 486.53125 Z M 653.492188 486.53125 " clip-rule="nonzero"/></clipPath><clipPath id="ba738e1ef4"><path d="M 625.925781 0 L 654.363281 0 L 654.363281 506.402344 L 625.925781 506.402344 Z M 625.925781 0 " clip-rule="nonzero"/></clipPath><clipPath id="cf3d5a19f3"><path d="M 640.144531 0 C 643.914062 0 647.53125 1.496094 650.199219 4.164062 C 652.863281 6.832031 654.363281 10.445312 654.363281 14.21875 L 654.363281 492.078125 C 654.363281 495.851562 652.863281 499.46875 650.199219 502.132812 C 647.53125 504.800781 643.914062 506.296875 640.144531 506.296875 C 636.375 506.296875 632.757812 504.800781 630.089844 502.132812 C 627.425781 499.46875 625.925781 495.851562 625.925781 492.078125 L 625.925781 14.21875 C 625.925781 10.445312 627.425781 6.832031 630.089844 4.164062 C 632.757812 1.496094 636.375 0 640.144531 0 Z M 640.144531 0 " clip-rule="nonzero"/></clipPath><clipPath id="4009281f6a"><path d="M 25.136719 17.035156 L 48.777344 17.035156 L 48.777344 40.679688 L 25.136719 40.679688 Z M 25.136719 17.035156 " clip-rule="nonzero"/></clipPath><clipPath id="965cece95c"><path d="M 36.957031 17.035156 C 30.429688 17.035156 25.136719 22.328125 25.136719 28.859375 C 25.136719 35.386719 30.429688 40.679688 36.957031 40.679688 C 43.488281 40.679688 48.777344 35.386719 48.777344 28.859375 C 48.777344 22.328125 43.488281 17.035156 36.957031 17.035156 Z M 36.957031 17.035156 " clip-rule="nonzero"/></clipPath><clipPath id="801c070acc"><path d="M 28.257812 20.15625 L 45.660156 20.15625 L 45.660156 37.558594 L 28.257812 37.558594 Z M 28.257812 20.15625 " clip-rule="nonzero"/></clipPath><clipPath id="84e9450b83"><path d="M 36.957031 20.15625 C 32.152344 20.15625 28.257812 24.050781 28.257812 28.859375 C 28.257812 33.664062 32.152344 37.558594 36.957031 37.558594 C 41.761719 37.558594 45.660156 33.664062 45.660156 28.859375 C 45.660156 24.050781 41.761719 20.15625 36.957031 20.15625 Z M 36.957031 20.15625 " clip-rule="nonzero"/></clipPath><clipPath id="6adf3cd1ef"><path d="M 56.628906 17.035156 L 80.273438 17.035156 L 80.273438 40.679688 L 56.628906 40.679688 Z M 56.628906 17.035156 " clip-rule="nonzero"/></clipPath><clipPath id="df29d8238a"><path d="M 68.453125 17.035156 C 61.921875 17.035156 56.628906 22.328125 56.628906 28.859375 C 56.628906 35.386719 61.921875 40.679688 68.453125 40.679688 C 74.980469 40.679688 80.273438 35.386719 80.273438 28.859375 C 80.273438 22.328125 74.980469 17.035156 68.453125 17.035156 Z M 68.453125 17.035156 " clip-rule="nonzero"/></clipPath><clipPath id="6fc92d26e0"><path d="M 59.75 20.15625 L 77.152344 20.15625 L 77.152344 37.558594 L 59.75 37.558594 Z M 59.75 20.15625 " clip-rule="nonzero"/></clipPath><clipPath id="409ecc1a03"><path d="M 68.453125 20.15625 C 63.644531 20.15625 59.75 24.050781 59.75 28.859375 C 59.75 33.664062 63.644531 37.558594 68.453125 37.558594 C 73.257812 37.558594 77.152344 33.664062 77.152344 28.859375 C 77.152344 24.050781 73.257812 20.15625 68.453125 20.15625 Z M 68.453125 20.15625 " clip-rule="nonzero"/></clipPath><clipPath id="9c966693c2"><path d="M 88.15625 17.035156 L 111.800781 17.035156 L 111.800781 40.679688 L 88.15625 40.679688 Z M 88.15625 17.035156 " clip-rule="nonzero"/></clipPath><clipPath id="5ea050bf19"><path d="M 99.976562 17.035156 C 93.449219 17.035156 88.15625 22.328125 88.15625 28.859375 C 88.15625 35.386719 93.449219 40.679688 99.976562 40.679688 C 106.507812 40.679688 111.800781 35.386719 111.800781 28.859375 C 111.800781 22.328125 106.507812 17.035156 99.976562 17.035156 Z M 99.976562 17.035156 " clip-rule="nonzero"/></clipPath><clipPath id="ede1b480ba"><path d="M 91.277344 20.15625 L 108.679688 20.15625 L 108.679688 37.558594 L 91.277344 37.558594 Z M 91.277344 20.15625 " clip-rule="nonzero"/></clipPath><clipPath id="1dc9a67f09"><path d="M 99.976562 20.15625 C 95.171875 20.15625 91.277344 24.050781 91.277344 28.859375 C 91.277344 33.664062 95.171875 37.558594 99.976562 37.558594 C 104.78125 37.558594 108.679688 33.664062 108.679688 28.859375 C 108.679688 24.050781 104.78125 20.15625 99.976562 20.15625 Z M 99.976562 20.15625 " clip-rule="nonzero"/></clipPath><clipPath id="0d45b813d2"><path d="M 3.070312 52.6875 L 374.042969 52.6875 L 374.042969 56.433594 L 3.070312 56.433594 Z M 3.070312 52.6875 " clip-rule="nonzero"/></clipPath></defs><g clip-path="url(#484de8ce35)"><g clip-path="url(#bb8eb4e6d0)"><path stroke-linecap="butt" transform="matrix(0.749263, 0, 0, 0.749263, 6.618152, 28.859133)" fill="none" stroke-linejoin="miter" d="M 40.001553 0.000323146 L 817.265129 0.000323146 C 827.87451 0.000323146 838.051174 4.212795 845.548122 11.714956 C 853.050284 19.217118 857.267969 29.388569 857.267969 39.99795 L 857.267969 597.420556 C 857.267969 608.029937 853.050284 618.201388 845.548122 625.703549 C 838.051174 633.205711 827.87451 637.418183 817.265129 637.418183 L 40.001553 637.418183 C 29.392172 637.418183 19.215508 633.205711 11.713346 625.703549 C 4.216398 618.201388 -0.00128692 608.029937 -0.00128692 597.420556 L -0.00128692 39.99795 C -0.00128692 29.388569 4.216398 19.217118 11.713346 11.714956 C 19.215508 4.212795 29.392172 0.000323146 40.001553 0.000323146 Z M 40.001553 0.000323146 " stroke="#720220" stroke-width="8" stroke-opacity="1" stroke-miterlimit="4"/></g></g><g mask="url(#99522c18d0)"><g transform="matrix(1, 0, 0, 1, 22, 31)"><g clip-path="url(#171b3fc5e4)"><g clip-path="url(#8d964c7271)"><g clip-path="url(#1caaab915f)"><path fill="#000000" d="M 0.550781 0.25 L 629.828125 0.25 L 629.828125 475.460938 L 0.550781 475.460938 Z M 0.550781 0.25 " fill-opacity="1" fill-rule="nonzero"/></g></g></g></g></g><g clip-path="url(#6c4073ba2a)"><g clip-path="url(#4c69d5e59d)"><path fill="#d30a40" d="M 0.0703125 0.160156 L 377.113281 0.160156 L 377.113281 508.285156 L 0.0703125 508.285156 Z M 0.0703125 0.160156 " fill-opacity="1" fill-rule="nonzero"/></g></g><g clip-path="url(#822daa5708)"><g clip-path="url(#d5978977c3)"><path stroke-linecap="butt" transform="matrix(0.749263, 0, 0, 0.749263, 0.0722103, 0.164473)" fill="none" stroke-linejoin="miter" d="M 40.00031 -0.000547905 L 463.202545 -0.000547905 C 473.811926 -0.000547905 483.988591 4.211924 491.48554 11.714086 C 498.987702 19.216248 503.205387 29.392913 503.205387 39.997081 L 503.205387 637.417352 C 503.205387 648.021521 498.987702 658.198185 491.48554 665.700348 C 483.988591 673.197296 473.811926 677.414982 463.202545 677.414982 L 40.00031 677.414982 C 29.390928 677.414982 19.214263 673.197296 11.717315 665.700348 C 4.215153 658.198185 -0.00253282 648.021521 -0.00253282 637.417352 L -0.00253282 39.997081 C -0.00253282 29.392913 4.215153 19.216248 11.717315 11.714086 C 19.214263 4.211924 29.390928 -0.000547905 40.00031 -0.000547905 Z M 40.00031 -0.000547905 " stroke="#720220" stroke-width="8" stroke-opacity="1" stroke-miterlimit="4"/></g></g><g clip-path="url(#7772e21db9)"><g clip-path="url(#89d619f811)"><path fill="#474747" d="M 654.355469 476.5625 L 654.355469 506.441406 L 625.917969 506.441406 L 625.917969 476.5625 Z M 654.355469 476.5625 " fill-opacity="1" fill-rule="nonzero"/></g></g><g clip-path="url(#ba738e1ef4)"><g clip-path="url(#cf3d5a19f3)"><path fill="#474747" d="M 625.925781 0 L 654.363281 0 L 654.363281 506.292969 L 625.925781 506.292969 Z M 625.925781 0 " fill-opacity="1" fill-rule="nonzero"/></g></g><g clip-path="url(#4009281f6a)"><g clip-path="url(#965cece95c)"><path fill="#248ccc" d="M 25.136719 17.035156 L 48.777344 17.035156 L 48.777344 40.679688 L 25.136719 40.679688 Z M 25.136719 17.035156 " fill-opacity="1" fill-rule="nonzero"/></g></g><g clip-path="url(#801c070acc)"><g clip-path="url(#84e9450b83)"><path fill="#d4d3d2" d="M 28.257812 20.15625 L 45.660156 20.15625 L 45.660156 37.558594 L 28.257812 37.558594 Z M 28.257812 20.15625 " fill-opacity="1" fill-rule="nonzero"/></g></g><g clip-path="url(#6adf3cd1ef)"><g clip-path="url(#df29d8238a)"><path fill="#248ccc" d="M 56.628906 17.035156 L 80.273438 17.035156 L 80.273438 40.679688 L 56.628906 40.679688 Z M 56.628906 17.035156 " fill-opacity="1" fill-rule="nonzero"/></g></g><g clip-path="url(#6fc92d26e0)"><g clip-path="url(#409ecc1a03)"><path fill="#d4d3d2" d="M 59.75 20.15625 L 77.152344 20.15625 L 77.152344 37.558594 L 59.75 37.558594 Z M 59.75 20.15625 " fill-opacity="1" fill-rule="nonzero"/></g></g><g clip-path="url(#9c966693c2)"><g clip-path="url(#5ea050bf19)"><path fill="#248ccc" d="M 88.15625 17.035156 L 111.800781 17.035156 L 111.800781 40.679688 L 88.15625 40.679688 Z M 88.15625 17.035156 " fill-opacity="1" fill-rule="nonzero"/></g></g><g clip-path="url(#ede1b480ba)"><g clip-path="url(#1dc9a67f09)"><path fill="#d4d3d2" d="M 91.277344 20.15625 L 108.679688 20.15625 L 108.679688 37.558594 L 91.277344 37.558594 Z M 91.277344 20.15625 " fill-opacity="1" fill-rule="nonzero"/></g></g><g clip-path="url(#0d45b813d2)"><path fill="#ffde59" d="M 3.070312 52.6875 L 374.042969 52.6875 L 374.042969 56.433594 L 3.070312 56.433594 Z M 3.070312 52.6875 " fill-opacity="1" fill-rule="nonzero"/></g></svg>